<?xml version="1.0" encoding="UTF-8"?>
<svg width="64px" height="64px" viewBox="0 0 64 64" version="1.1" xmlns="http://www.w3.org/2000/svg" xmlns:xlink="http://www.w3.org/1999/xlink">
    <!-- Generator: Sketch 64 (93537) - https://sketch.com -->
    <title>点击-</title>
    <desc>Created with Sketch.</desc>
    <g id="点击-" stroke="none" stroke-width="1" fill="none" fill-rule="evenodd">
        <g id="编组" transform="translate(11.000000, 6.000000)" fill="#FFFFFF" fill-rule="nonzero">
            <path d="M37.3620958,19.5042929 L37.2348727,19.5042929 C36.2945634,19.5042929 35.522851,19.7777217 34.7795482,20.2433354 C34.129104,18.3231183 32.4745838,16.9399015 30.3436129,16.9399015 C29.4032415,16.9399015 28.5051745,17.2132674 27.7619337,17.6788812 C27.1114275,15.7587268 25.4561629,14.3754472 23.32513,14.3754472 C22.4939931,14.3754472 21.7216604,14.5862165 21.0379062,14.9565226 L21.0379062,10.0159063 C21.0379062,7.32487748 19.027025,5.14341186 16.3490755,5.14341186 C13.6710641,5.14341186 11.5002081,7.32487748 11.5002081,10.0159063 L11.5002081,28.9319036 L8.55441409,25.9624859 C6.66076914,24.059723 3.30930043,24.3305776 1.69702253,25.9624859 C0.0847446382,27.5943943 -0.972614895,30.8790555 1.33613331,33.2159141 L14.8776052,46.8324159 C15.1569873,47.1131277 15.4640967,47.3472531 15.7871478,47.5452143 C18.2561189,49.583844 21.0852349,50.7906977 27.0676965,50.7906977 C40.7343445,50.7906977 42,43.3277559 42,34.1217764 L42,24.3767246 C42,21.6857585 40.0401072,19.5042929 37.3620958,19.5042929 Z M39.4477849,34.1216508 C39.4477849,41.9113258 39.4110013,48.2261178 27.0675724,48.2261178 C21.8385865,48.2261178 18.6993217,47.0460106 16.3211621,44.656287 L3.50159273,31.7651405 C2.3673783,30.6171164 2.65259121,29.1492654 3.5811149,28.2094363 C4.50957656,27.2696701 6.21372055,27.2371475 7.11073312,28.1384265 C7.11073312,28.1384265 9.35987071,30.4015126 11.2976188,32.3513015 C12.7640647,33.8268751 14.052237,35.1229464 14.052237,35.1229464 L14.052237,10.5287972 C14.052237,9.25413566 15.0805666,8.22081976 16.3490755,8.22081976 C17.6175224,8.22081976 18.4858772,9.25419845 18.4858772,10.5287972 L18.4858772,26.1719368 L18.5116196,26.1719368 C18.4948715,26.254813 18.4858772,26.3405146 18.4858772,26.4284136 C18.4858772,27.1365031 19.0571714,27.7106721 19.7618917,27.7106721 C20.4665499,27.7106721 21.0378441,27.1365659 21.0378441,26.4284136 C21.0378441,26.3405146 21.0289119,26.254813 21.0121018,26.1719368 L21.0378441,26.1719368 L21.0378441,19.7607697 C21.0378441,18.4861082 21.9555747,17.4527295 23.2240835,17.4527295 C23.2240835,17.4527295 25.4715463,17.4219649 25.4715463,19.7607697 L25.4715463,28.2233746 L25.4972887,28.2233746 C25.4805406,28.3063136 25.4715463,28.3920152 25.4715463,28.4798514 C25.4715463,29.1880037 26.0428405,29.76211 26.7474988,29.76211 C27.4522191,29.76211 28.0235133,29.1880665 28.0235133,28.4798514 C28.0235133,28.3920152 28.014581,28.3063136 27.9977709,28.2233746 L28.0235133,28.2233746 L28.0235133,22.325224 C28.0235133,21.0504997 28.9266048,20.017121 30.1951757,20.017121 C30.1951757,20.017121 32.4892228,20.1617149 32.4892228,22.325224 L32.4892228,29.7620472 L32.5149652,29.7620472 C32.4982792,29.8449234 32.4892228,29.9306877 32.4892228,30.018524 C32.4892228,30.7266763 33.060517,31.3007825 33.7652373,31.3007825 C34.4699576,31.3007825 35.0092444,30.7267391 35.0092444,30.018524 C35.0092444,29.9306877 35.0008084,29.8449234 34.9849288,29.7620472 L35.0092444,29.7620472 L35.0092444,24.6844968 C35.0092444,23.4098353 35.9555086,22.3764566 37.2239555,22.3764566 C37.2239555,22.3764566 39.4477849,22.2854183 39.4477849,24.6844968 C39.4477849,24.6844968 39.4477849,32.0476104 39.4477849,34.1216508 Z M9.60550861,17.2806358 L9.60550861,12.9716369 C9.20039216,12.0524013 8.97032372,11.0367908 8.97032372,9.96523883 C8.97032372,5.8818893 12.2407195,2.57167454 16.27495,2.57167454 C20.3091804,2.57167454 23.5795762,5.8818893 23.5795762,9.96523883 C23.5795762,10.523021 23.5144449,11.0645418 23.3975188,11.5863481 C24.3163038,11.6226379 25.1452697,12.0086402 25.7486954,12.6283911 C25.9826096,11.7796632 26.1202537,10.8901878 26.1202537,9.96523883 C26.1202537,4.4616293 21.7122939,0 16.2748879,0 C10.837482,0 6.42952214,4.4616293 6.42952214,9.96523883 C6.42952214,12.8608841 7.65721543,15.4598701 9.60550861,17.2806358 Z" id="形状"></path>
        </g>
    </g>
</svg>