<?xml version="1.0" encoding="UTF-8"?>
<svg width="64px" height="64px" viewBox="0 0 64 64" version="1.1" xmlns="http://www.w3.org/2000/svg" xmlns:xlink="http://www.w3.org/1999/xlink">
    <!-- Generator: Sketch 64 (93537) - https://sketch.com -->
    <title>回车</title>
    <desc>Created with Sketch.</desc>
    <g id="回车" stroke="none" stroke-width="1" fill="none" fill-rule="evenodd">
        <path d="M35.8507377,10.9945143 C34.8158778,10.9181651 34,10.0543618 34,9 C34,7.8954305 34.8954305,7 36,7 L36,7 L56,7 C56.5522847,7 57,7.44771525 57,8 L57,40 C57,40.5522847 56.5522847,41 56,41 L13.5478417,41 L24.2781909,51.7302211 C25.0592395,52.5112696 25.0592395,53.7775996 24.2781909,54.5586482 C23.4971423,55.3396968 22.2308123,55.3396968 21.4497637,54.5586482 L7.30762812,40.4165126 C6.52657954,39.635464 6.52657954,38.369134 7.30762812,37.5880854 C7.4102519,37.4854616 7.52125355,37.3963218 7.63843149,37.320666 L21.5765938,23.3856956 C22.3576424,22.604647 23.6239723,22.604647 24.4050209,23.3856956 C25.1860695,24.1667442 25.1860695,25.4330741 24.4050209,26.2141227 L13.6188417,37 L52,37 C52.5128358,37 52.9355072,36.6139598 52.9932723,36.1166211 L53,36 L53,12 C53,11.4477153 52.5522847,11 52,11 L35.9998417,11 Z" id="矩形-2" fill="#7E89A4"></path>
    </g>
</svg>