<?xml version="1.0" encoding="UTF-8"?>
<svg width="64px" height="64px" viewBox="0 0 64 64" version="1.1" xmlns="http://www.w3.org/2000/svg" xmlns:xlink="http://www.w3.org/1999/xlink">
    <!-- Generator: Sketch 64 (93537) - https://sketch.com -->
    <title>输入中-</title>
    <desc>Created with Sketch.</desc>
    <g id="输入中-" stroke="none" stroke-width="1" fill="none" fill-rule="evenodd">
        <path d="M37,51 L37,57 L31,57 L31,51 L37,51 Z M47,51 L47,57 L41,57 L41,51 L47,51 Z M57,51 L57,57 L51,57 L51,51 L57,51 Z M38.5057584,13.4852814 L49.8194669,24.7989899 L21.5351957,53.0832611 L8.8072736,54.4974747 L10.2214872,41.7695526 L38.5057584,13.4852814 Z M38.5057584,19.1421356 L13.0499143,44.5979797 L11.6357007,51.6690476 L18.7067685,50.254834 L44.1626127,24.7989899 L38.5057584,19.1421356 Z M48.4052533,6.41421356 L56.8905347,14.8994949 C57.6715833,15.6805435 57.6715833,16.9468735 56.8905347,17.7279221 L52.647894,21.9705627 L41.3341855,10.6568542 L45.5768262,6.41421356 C46.3578748,5.63316498 47.6242048,5.63316498 48.4052533,6.41421356 Z" id="矩形-2" fill="#FFFFFF"></path>
    </g>
</svg>